<svg width="24" height="24" viewBox="0 0 24 24" fill="none" xmlns="http://www.w3.org/2000/svg">
<path d="M14.5 1.25C15.4793 1.25 16.31 1.87657 16.6191 2.75H18.5C20.0188 2.75 21.25 3.98122 21.25 5.5V20C21.25 21.5188 20.0188 22.75 18.5 22.75H5.5C3.98122 22.75 2.75 21.5188 2.75 20V5.5C2.75 3.98122 3.98122 2.75 5.5 2.75H7.38086C7.68999 1.87657 8.52067 1.25 9.5 1.25H14.5ZM5.5 4.25C4.80964 4.25 4.25 4.80964 4.25 5.5V20C4.25 20.6904 4.80964 21.25 5.5 21.25H18.5C19.1904 21.25 19.75 20.6904 19.75 20V5.5C19.75 4.80964 19.1904 4.25 18.5 4.25H16.6191C16.31 5.12343 15.4793 5.75 14.5 5.75H9.5C8.52067 5.75 7.68999 5.12343 7.38086 4.25H5.5ZM11.4287 15.25C11.8429 15.2501 12.1787 15.5858 12.1787 16C12.1787 16.4142 11.8429 16.7499 11.4287 16.75H8C7.58579 16.75 7.25 16.4142 7.25 16C7.25 15.5858 7.58579 15.25 8 15.25H11.4287ZM16 10.25C16.4142 10.25 16.75 10.5858 16.75 11C16.75 11.4142 16.4142 11.75 16 11.75H8C7.58579 11.75 7.25 11.4142 7.25 11C7.25 10.5858 7.58579 10.25 8 10.25H16ZM9.5 2.75C9.08579 2.75 8.75 3.08579 8.75 3.5C8.75 3.91421 9.08579 4.25 9.5 4.25H14.5C14.9142 4.25 15.25 3.91421 15.25 3.5C15.25 3.08579 14.9142 2.75 14.5 2.75H9.5Z" fill="#AFB5CA"/>
</svg>
