<svg width="24" height="24" viewBox="0 0 24 24" fill="none" xmlns="http://www.w3.org/2000/svg">
<path d="M12 1.25C16.2802 1.25 19.75 4.71979 19.75 9C19.75 12.0088 17.9479 14.5213 15.6592 16.1152C14.9872 16.5832 14.5669 17.1446 14.3486 18.1582C13.7534 20.9213 11.8204 22.75 9.30762 22.75C8.02486 22.75 6.99839 22.1867 6.31348 21.2812C5.64429 20.3965 5.32715 19.2247 5.32715 18C5.32715 17.5858 5.66293 17.25 6.07715 17.25C6.49126 17.2501 6.82715 17.5859 6.82715 18C6.82715 18.9844 7.08401 19.813 7.50977 20.376C7.91979 20.9181 8.50888 21.25 9.30762 21.25C10.9582 21.25 12.4001 20.0786 12.8818 17.8418C13.1799 16.4583 13.8177 15.5702 14.8018 14.8848C16.8207 13.4787 18.25 11.3758 18.25 9C18.25 5.54822 15.4518 2.75 12 2.75C8.54822 2.75 5.75 5.54822 5.75 9C5.75 9.41421 5.41421 9.75 5 9.75C4.58579 9.75 4.25 9.41421 4.25 9C4.25 4.71979 7.71979 1.25 12 1.25ZM12.0098 5.25C13.0876 5.25009 14.0012 5.62447 14.6621 6.31543C15.3126 6.99556 15.6611 7.92174 15.7471 8.93652C15.782 9.34919 15.4761 9.71201 15.0635 9.74707C14.6508 9.78202 14.288 9.47611 14.2529 9.06348C14.1885 8.30271 13.9375 7.7284 13.5781 7.35254C13.2291 6.9876 12.7219 6.75008 12.0098 6.75C11.5009 6.75 11.1418 6.87221 10.8779 7.0459C10.6102 7.22217 10.3934 7.48293 10.2217 7.82812C9.94759 8.37939 9.8154 9.09089 9.76953 9.83594C11.1537 10.148 12.2578 11.2827 12.2578 12.75C12.2578 14.4813 10.7207 15.75 9 15.75C8.58579 15.75 8.25 15.4142 8.25 15C8.25 14.5858 8.58579 14.25 9 14.25C10.0494 14.25 10.7578 13.504 10.7578 12.75C10.7578 11.996 10.0494 11.25 9 11.25C8.58579 11.25 8.25 10.9142 8.25 10.5C8.25 9.45944 8.36562 8.19118 8.87891 7.15918C9.14135 6.63169 9.51775 6.14519 10.0527 5.79297C10.5917 5.43811 11.246 5.25 12.0098 5.25Z" fill="#AFB5CA"/>
</svg>
