<svg width="24" height="24" viewBox="0 0 24 24" fill="none" xmlns="http://www.w3.org/2000/svg">
<path d="M17.9655 2.4737C18.1756 2.26392 18.506 2.19457 18.7859 2.31452C19.0655 2.43458 19.2457 2.70422 19.2458 3.00397V4.16413L22.4851 6.9444C22.7751 7.1944 22.8357 7.61464 22.6257 7.93464L21.6257 9.43464C21.4357 9.71454 21.0853 9.83442 20.7654 9.73444L18.3855 8.9444L18.2556 9.20417V11.8038C18.2556 13.0536 18.7055 14.2737 19.5154 15.2237L20.9724 16.9258C21.1408 16.776 21.306 16.6228 21.4655 16.4639C21.7555 16.174 22.2351 16.1741 22.5251 16.4639C22.8151 16.7539 22.8151 17.2345 22.5251 17.5245C19.8352 20.2041 15.9955 21.7441 11.9958 21.7442C7.99595 21.7442 4.15553 20.2043 1.46555 17.5245C1.17555 17.2345 1.17555 16.7539 1.46555 16.4639C1.75548 16.174 2.23511 16.1741 2.52512 16.4639C3.00484 16.9417 3.52655 17.3785 4.08176 17.7725L6.1052 14.8145C6.5152 14.1445 6.74582 13.3542 6.74582 12.5342C6.74582 11.8143 6.97978 11.1467 7.3757 10.6036C7.18284 10.4095 6.98892 10.1603 6.83566 9.84382C6.62566 9.43386 6.3154 9.24421 5.84543 9.24421C5.23552 9.24425 4.74591 9.73392 4.74582 10.3438V11.584C4.74582 12.674 4.30512 13.7545 3.52512 14.5245C3.37526 14.6741 3.18554 14.7441 2.99582 14.7442C2.80592 14.7442 2.61551 14.6743 2.46555 14.5245C2.17555 14.2345 2.17555 13.7539 2.46555 13.4639C2.96552 12.9639 3.24582 12.284 3.24582 11.584V10.3438C3.24591 8.91392 4.41552 7.74425 5.84543 7.74421C6.88538 7.74421 7.7055 8.25397 8.17551 9.17389C8.27311 9.37354 8.40299 9.51735 8.5173 9.61725C8.97208 9.37892 9.4892 9.24421 10.0359 9.24421H12.4958C12.9755 9.24397 13.3157 8.79435 13.4157 8.35456C14.0157 5.50459 16.0256 4.19462 16.5456 3.8946L17.9655 2.4737ZM12.6862 15.2442C11.2463 15.2442 9.89588 15.9441 9.0759 17.1241L7.42453 19.4815C8.86858 19.9793 10.4169 20.2442 11.9958 20.2442C14.085 20.2442 16.12 19.7805 17.9314 18.9258L15.9763 16.7237C15.1463 15.7838 13.9362 15.2442 12.6862 15.2442ZM17.5251 5.05378C17.4652 5.1137 17.4057 5.15445 17.3259 5.1944C17.2559 5.2344 15.3957 6.21464 14.8757 8.68464C14.6256 9.89435 13.6156 10.7743 12.4958 10.7745H10.0359C9.04586 10.7745 8.24582 11.5745 8.24582 12.5645C8.24577 13.6544 7.93515 14.7342 7.3552 15.6641L5.37082 18.5772C5.57764 18.69 5.78827 18.7966 6.00168 18.8985L7.84641 16.2637C8.94641 14.6839 10.7564 13.7442 12.6862 13.7442C14.3762 13.7442 15.9764 14.4638 17.0964 15.7237L19.2849 18.1885C19.4561 18.0816 19.6242 17.9702 19.7898 17.8555L18.365 16.2042C17.3151 14.9742 16.7458 13.4136 16.7458 11.8038V9.02448C16.7458 8.90448 16.7759 8.7944 16.8259 8.6944L17.3259 7.6944C17.4959 7.36454 17.8752 7.20469 18.2351 7.31452L20.695 8.13385L21.0056 7.66413L18.0056 5.09382C17.9057 5.01383 17.8356 4.90418 17.7956 4.78425L17.5251 5.05378Z" fill="#AFB5CA"/>
</svg>
