<svg width="24" height="24" viewBox="0 0 24 24" fill="none" xmlns="http://www.w3.org/2000/svg">
<path d="M11 13.25C15.2802 13.25 18.75 16.7198 18.75 21C18.75 21.4142 18.4142 21.75 18 21.75H2C1.58579 21.75 1.25 21.4142 1.25 21C1.25 16.7198 4.71979 13.25 9 13.25H11ZM9 14.75C5.80205 14.75 3.16546 17.1519 2.79492 20.25H17.2051C16.8345 17.1519 14.1979 14.75 11 14.75H9ZM18.043 6.85254C18.4352 6.04882 19.5677 6.04885 19.96 6.85254L20.5615 8.08594L21.8555 8.30078C22.7485 8.44934 23.02 9.52621 22.4502 10.123L21.5049 11.1133L21.7148 12.5029C21.836 13.3076 21.0015 14.0722 20.1611 13.625L19.002 13.0078L17.8418 13.625C17.0014 14.0721 16.167 13.3075 16.2881 12.5029L16.498 11.1133L15.5527 10.123C14.9829 9.52621 15.2545 8.44934 16.1475 8.30078L17.4424 8.08594L18.043 6.85254ZM18.6943 8.94043C18.546 9.2443 18.2586 9.47019 17.9092 9.52832L17.1758 9.65039L17.7227 10.2236C17.9585 10.4707 18.0603 10.8117 18.0107 11.1406L17.8965 11.8965L18.5049 11.5732C18.8158 11.408 19.1871 11.408 19.498 11.5732L20.1064 11.8965L19.9922 11.1406C19.9426 10.8118 20.0445 10.4707 20.2803 10.2236L20.8271 9.65039L20.0938 9.52832C19.7443 9.47018 19.457 9.24432 19.3086 8.94043L19.002 8.31055L18.6943 8.94043ZM10 2.25C12.6234 2.25 14.75 4.37665 14.75 7C14.75 9.62335 12.6234 11.75 10 11.75C7.37665 11.75 5.25 9.62335 5.25 7C5.25 4.37665 7.37665 2.25 10 2.25ZM10 3.75C8.20507 3.75 6.75 5.20507 6.75 7C6.75 8.79493 8.20507 10.25 10 10.25C11.7949 10.25 13.25 8.79493 13.25 7C13.25 5.20507 11.7949 3.75 10 3.75Z" fill="#AFB5CA"/>
</svg>
