<svg width="24" height="24" viewBox="0 0 24 24" fill="none" xmlns="http://www.w3.org/2000/svg">
<path d="M6.48633 13.25C6.94972 13.25 7.4055 13.3675 7.81152 13.5909L9.69238 14.625H10.5C10.9307 14.625 11.3359 14.7014 11.7041 14.8369C11.7298 14.8488 11.7565 14.8596 11.7842 14.8682C12.4136 15.1181 12.9301 15.5416 13.2754 16.0459C13.3906 16.2534 13.4721 16.4668 13.5215 16.67L10.1133 17.7793C10.0422 17.8024 9.96548 17.803 9.89453 17.7793L7.20703 16.8828C6.86661 16.7696 6.49831 16.9536 6.38477 17.294C6.27128 17.6344 6.45554 18.0026 6.7959 18.1162L9.4834 19.0127C9.81837 19.1244 10.1809 19.125 10.5166 19.0157L14.4307 17.7412C14.6983 17.6541 14.8799 17.4045 14.8799 17.1231C14.8799 16.6913 14.7735 16.1864 14.5498 15.6924L16.9727 14.8848C18.354 14.4244 19.8557 15.1208 20.3965 16.4727C20.7104 17.2581 20.3697 18.1529 19.6133 18.5313L12.0283 22.3242C11.4152 22.6308 10.7094 22.6973 10.0498 22.5108L3.7959 20.7412C3.47302 20.6499 3.25 20.3551 3.25 20.0196V14C3.25 13.5858 3.58579 13.25 4 13.25H6.48633ZM13.2637 1.56155C14.1037 1.19762 15.2927 1.0307 16.6279 1.75394C18.2598 2.63799 19.0431 4.67347 18.6465 6.74027C18.242 8.84773 16.6377 11.0048 13.5059 12.3975C12.8666 12.6817 12.1325 12.6816 11.4932 12.3975C8.36112 11.0048 6.75605 8.84778 6.35156 6.74027C5.95493 4.67348 6.73826 2.63799 8.37012 1.75394C9.70535 1.03067 10.8943 1.19766 11.7344 1.56155C12.0396 1.69378 12.2968 1.85 12.499 1.99417C12.7013 1.84997 12.9584 1.69381 13.2637 1.56155Z" fill="#563CCA"/>
</svg>
